<?xml version="1.0" encoding="UTF-8" standalone="no"?>
<svg
   xmlns:dc="http://purl.org/dc/elements/1.1/"
   xmlns:cc="http://creativecommons.org/ns#"
   xmlns:rdf="http://www.w3.org/1999/02/22-rdf-syntax-ns#"
   xmlns:svg="http://www.w3.org/2000/svg"
   xmlns="http://www.w3.org/2000/svg"
   xmlns:sodipodi="http://sodipodi.sourceforge.net/DTD/sodipodi-0.dtd"
   xmlns:inkscape="http://www.inkscape.org/namespaces/inkscape"
   viewBox="0 0 1140 360"
   enable-background="new 0 0 1140 360"
   version="1.1"
   id="svg46"
   sodipodi:docname="banner1.svg"
   inkscape:version="0.92.2 (5c3e80d, 2017-08-06)">
  <metadata
     id="metadata52">
    <rdf:RDF>
      <cc:Work
         rdf:about="">
        <dc:format>image/svg+xml</dc:format>
        <dc:type
           rdf:resource="http://purl.org/dc/dcmitype/StillImage" />
        <dc:title />
      </cc:Work>
    </rdf:RDF>
  </metadata>
  <defs
     id="defs50" />
  <sodipodi:namedview
     pagecolor="#ffffff"
     bordercolor="#666666"
     borderopacity="1"
     objecttolerance="10"
     gridtolerance="10"
     guidetolerance="10"
     inkscape:pageopacity="0"
     inkscape:pageshadow="2"
     inkscape:window-width="1366"
     inkscape:window-height="705"
     id="namedview48"
     showgrid="false"
     showguides="true"
     inkscape:guide-bbox="true"
     inkscape:zoom="0.7046257"
     inkscape:cx="508.3794"
     inkscape:cy="114.89896"
     inkscape:window-x="-8"
     inkscape:window-y="-8"
     inkscape:window-maximized="1"
     inkscape:current-layer="svg46">
    <sodipodi:guide
       position="-65.282887,302.28815"
       orientation="0,1"
       id="guide58"
       inkscape:locked="false" />
    <sodipodi:guide
       position="570.51566,185.91431"
       orientation="1,0"
       id="guide68"
       inkscape:locked="false" />
    <sodipodi:guide
       position="-120.63142,298.03057"
       orientation="0,1"
       id="guide38"
       inkscape:locked="false" />
    <sodipodi:guide
       position="-66.70208,219.97495"
       orientation="0,1"
       id="guide40"
       inkscape:locked="false" />
    <sodipodi:guide
       position="183.07592,254.03558"
       orientation="0,1"
       id="guide42"
       inkscape:locked="false" />
    <sodipodi:guide
       position="536.45503,307.96492"
       orientation="0,1"
       id="guide236"
       inkscape:locked="false" />
    <sodipodi:guide
       position="474.01053,200.10624"
       orientation="0,1"
       id="guide238"
       inkscape:locked="false" />
  </sodipodi:namedview>
  <path
     d="M0 0h1140v360h-1140v-360z"
     id="path42"
     style="fill:#008000"
     fill="#56B4D9" />
  <path
     d="m 170.38597,289.07476 h -3.996 l -3.266,-8.637 h -13.063 l -3.072,8.637 h -4.018 l 11.816,-30.809 h 3.738 z m -8.443,-11.881 -4.834,-13.127 c -0.158,-0.43 -0.315,-1.117 -0.473,-2.063 h -0.086 c -0.144,0.874 -0.308,1.562 -0.494,2.063 l -4.791,13.127 z m 10.921,10.635 v -4.254 c 0.487,0.43 1.07,0.816 1.751,1.16 0.68,0.344 1.396,0.634 2.148,0.87 0.752,0.236 1.507,0.419 2.267,0.548 0.759,0.129 1.461,0.193 2.105,0.193 2.22,0 3.878,-0.412 4.974,-1.235 1.096,-0.823 1.644,-2.009 1.644,-3.556 0,-0.831 -0.183,-1.554 -0.548,-2.17 -0.365,-0.616 -0.87,-1.178 -1.515,-1.687 -0.645,-0.509 -1.407,-0.995 -2.288,-1.461 -0.881,-0.466 -1.83,-0.956 -2.847,-1.472 -1.074,-0.544 -2.077,-1.096 -3.008,-1.654 -0.931,-0.559 -1.74,-1.175 -2.428,-1.848 -0.688,-0.673 -1.229,-1.436 -1.622,-2.288 -0.394,-0.853 -0.591,-1.852 -0.591,-2.997 0,-1.403 0.308,-2.625 0.924,-3.663 0.616,-1.038 1.425,-1.895 2.428,-2.567 1.002,-0.673 2.145,-1.175 3.427,-1.504 1.282,-0.329 2.589,-0.494 3.921,-0.494 3.036,0 5.249,0.365 6.639,1.096 v 4.061 c -1.819,-1.261 -4.154,-1.891 -7.004,-1.891 -0.788,0 -1.576,0.082 -2.363,0.247 -0.788,0.165 -1.49,0.434 -2.105,0.806 -0.616,0.372 -1.117,0.853 -1.504,1.439 -0.387,0.586 -0.58,1.304 -0.58,2.148 0,0.788 0.146,1.468 0.44,2.041 0.293,0.573 0.727,1.096 1.3,1.568 0.573,0.473 1.271,0.931 2.095,1.375 0.823,0.444 1.772,0.931 2.847,1.461 1.103,0.544 2.148,1.117 3.137,1.719 0.989,0.602 1.854,1.268 2.6,1.998 0.745,0.73 1.335,1.54 1.772,2.428 0.437,0.888 0.655,1.905 0.655,3.051 0,1.519 -0.297,2.804 -0.892,3.856 -0.595,1.053 -1.396,1.908 -2.406,2.567 -1.01,0.659 -2.174,1.135 -3.491,1.429 -1.318,0.293 -2.707,0.44 -4.168,0.44 -0.487,0 -1.089,-0.04 -1.805,-0.118 -0.716,-0.079 -1.447,-0.193 -2.191,-0.344 -0.745,-0.15 -1.45,-0.337 -2.116,-0.559 -0.666,-0.222 -1.202,-0.467 -1.602,-0.739 z m 27.808,-10.399 v 11.645 h -3.609 v -30.809 h 8.465 c 3.294,0 5.847,0.802 7.659,2.406 1.812,1.604 2.718,3.867 2.718,6.789 0,2.922 -1.006,5.313 -3.019,7.176 -2.013,1.862 -4.73,2.793 -8.153,2.793 z m 0,-15.898 v 12.633 h 3.781 c 2.492,0 4.394,-0.569 5.704,-1.708 1.31,-1.139 1.966,-2.746 1.966,-4.823 0,-4.067 -2.406,-6.102 -7.219,-6.102 z m 21.169,28.015 c -0.659,0 -1.221,-0.236 -1.687,-0.709 -0.466,-0.473 -0.698,-1.038 -0.698,-1.697 0,-0.659 0.232,-1.229 0.698,-1.708 0.465,-0.479 1.027,-0.72 1.687,-0.72 0.673,0 1.246,0.24 1.719,0.72 0.473,0.48 0.709,1.049 0.709,1.708 0,0.659 -0.236,1.225 -0.709,1.697 -0.473,0.472 -1.047,0.709 -1.719,0.709 z m 33.007,-0.472 h -4.426 l -15.855,-24.557 c -0.401,-0.616 -0.73,-1.261 -0.988,-1.934 h -0.129 c 0.114,0.659 0.172,2.069 0.172,4.232 v 22.258 h -3.609 v -30.808 h 4.684 l 15.426,24.17 c 0.645,1.003 1.06,1.69 1.246,2.063 h 0.086 c -0.144,-0.888 -0.215,-2.399 -0.215,-4.533 v -21.7 h 3.609 v 30.809 z m 23.79,0 h -16.328 v -30.809 h 15.641 v 3.266 h -12.031 v 10.248 h 11.129 v 3.244 h -11.129 v 10.785 h 12.719 v 3.266 z m 23.533,-27.543 h -8.895 v 27.543 h -3.609 v -27.543 h -8.873 v -3.266 h 21.377 z m 36.623,26.254 c -2.277,1.203 -5.113,1.805 -8.508,1.805 -4.383,0 -7.892,-1.411 -10.527,-4.232 -2.636,-2.821 -3.953,-6.524 -3.953,-11.107 0,-4.927 1.482,-8.909 4.447,-11.945 2.965,-3.036 6.725,-4.555 11.279,-4.555 2.922,0 5.342,0.423 7.262,1.268 v 3.846 c -2.206,-1.231 -4.641,-1.848 -7.305,-1.848 -3.538,0 -6.406,1.182 -8.604,3.545 -2.199,2.363 -3.298,5.521 -3.298,9.475 0,3.753 1.027,6.742 3.083,8.97 2.055,2.228 4.751,3.341 8.089,3.341 3.094,0 5.772,-0.688 8.035,-2.063 z m 14.38,1.804 c -3.251,0 -5.848,-1.027 -7.788,-3.083 -1.941,-2.056 -2.911,-4.78 -2.911,-8.175 0,-3.695 1.01,-6.581 3.029,-8.658 2.019,-2.077 4.748,-3.115 8.186,-3.115 3.28,0 5.84,1.01 7.681,3.029 1.84,2.02 2.761,4.819 2.761,8.4 0,3.509 -0.992,6.32 -2.976,8.433 -1.984,2.113 -4.645,3.169 -7.982,3.169 z m 0.258,-20.066 c -2.263,0 -4.054,0.77 -5.371,2.31 -1.318,1.54 -1.977,3.663 -1.977,6.37 0,2.606 0.666,4.662 1.998,6.166 1.332,1.504 3.115,2.256 5.35,2.256 2.277,0 4.028,-0.737 5.253,-2.213 1.225,-1.476 1.837,-3.573 1.837,-6.295 0,-2.75 -0.612,-4.87 -1.837,-6.359 -1.225,-1.489 -2.976,-2.235 -5.253,-2.235 z m 27.185,1.117 c -0.616,-0.473 -1.504,-0.709 -2.664,-0.709 -1.504,0 -2.761,0.709 -3.771,2.127 -1.01,1.418 -1.515,3.352 -1.515,5.801 v 11.215 h -3.523 v -22 h 3.523 v 4.533 h 0.086 c 0.501,-1.547 1.268,-2.754 2.299,-3.62 1.031,-0.866 2.184,-1.3 3.459,-1.3 0.917,0 1.618,0.101 2.105,0.301 v 3.652 z m 20.89,8.315 h -15.533 c 0.057,2.449 0.716,4.34 1.977,5.672 1.26,1.332 2.993,1.998 5.199,1.998 2.478,0 4.755,-0.816 6.832,-2.449 v 3.309 c -1.934,1.403 -4.49,2.105 -7.67,2.105 -3.108,0 -5.55,-0.999 -7.326,-2.997 -1.776,-1.998 -2.664,-4.809 -2.664,-8.433 0,-3.423 0.97,-6.213 2.911,-8.368 1.94,-2.155 4.351,-3.233 7.229,-3.233 2.878,0 5.106,0.931 6.682,2.793 1.575,1.862 2.363,4.447 2.363,7.756 z m -3.61,-2.987 c -0.015,-2.034 -0.505,-3.616 -1.472,-4.748 -0.967,-1.132 -2.31,-1.697 -4.028,-1.697 -1.662,0 -3.072,0.595 -4.232,1.783 -1.16,1.188 -1.876,2.743 -2.148,4.662 z m 40.699,-39.408 h -1 v 74 h 1 z m 83.592,54.095 h -1.842 l -7.165,-24.235 c -0.359,-1.243 -0.562,-2.253 -0.606,-3.032 h -0.09 c -0.045,0.659 -0.277,1.655 -0.696,2.987 l -7.637,24.28 h -1.842 l -9.568,-32.209 h 2.493 l 7.345,25.808 c 0.329,1.168 0.562,2.119 0.696,2.853 h 0.09 c 0.09,-0.554 0.352,-1.505 0.786,-2.853 l 7.951,-25.808 h 1.123 l 7.3,25.808 c 0.344,1.198 0.576,2.149 0.696,2.853 h 0.09 c 0.075,-0.419 0.194,-0.898 0.359,-1.438 l 7.547,-27.223 h 2.403 z m 14.445,-28.795 c -0.449,0 -0.846,-0.165 -1.19,-0.494 -0.345,-0.329 -0.517,-0.749 -0.517,-1.258 0,-0.494 0.176,-0.895 0.528,-1.202 0.352,-0.307 0.745,-0.46 1.179,-0.46 0.464,0 0.872,0.15 1.224,0.449 0.352,0.3 0.528,0.704 0.528,1.213 0,0.479 -0.172,0.891 -0.517,1.235 -0.344,0.345 -0.756,0.517 -1.235,0.517 z m -1.011,28.795 v -23 h 2.066 v 23 z m 24.239,0 v -13.387 c 0,-5.525 -1.992,-8.288 -5.975,-8.288 -2.216,0 -4.036,0.813 -5.458,2.437 -1.423,1.625 -2.134,3.635 -2.134,6.031 v 13.207 h -2.066 v -23 h 2.066 v 4.178 h 0.09 c 1.677,-3.159 4.297,-4.739 7.861,-4.739 2.485,0 4.387,0.828 5.705,2.482 1.317,1.655 1.977,4.017 1.977,7.086 v 13.993 z m 24.485,0 v -4.178 h -0.09 c -0.748,1.453 -1.855,2.605 -3.324,3.459 -1.467,0.854 -3.122,1.28 -4.963,1.28 -2.83,0 -5.14,-1.033 -6.929,-3.1 -1.79,-2.066 -2.684,-4.919 -2.684,-8.558 0,-3.713 0.977,-6.719 2.931,-9.018 1.954,-2.298 4.488,-3.448 7.603,-3.448 3.445,0 5.9,1.415 7.367,4.245 h 0.09 v -14.733 h 2.066 v 34.051 z m 0,-13.993 c 0,-2.141 -0.678,-3.957 -2.031,-5.447 -1.355,-1.49 -3.18,-2.235 -5.47,-2.235 -2.411,0 -4.402,0.925 -5.975,2.774 -1.572,1.85 -2.358,4.391 -2.358,7.625 0,3.175 0.708,5.626 2.123,7.356 1.415,1.73 3.238,2.594 5.469,2.594 2.62,0 4.649,-0.812 6.086,-2.437 1.438,-1.625 2.156,-3.605 2.156,-5.941 z m 17.838,14.554 c -3.354,0 -6.009,-1.104 -7.962,-3.313 -1.955,-2.208 -2.932,-5.08 -2.932,-8.614 0,-3.818 1.021,-6.806 3.066,-8.962 2.043,-2.156 4.735,-3.234 8.074,-3.234 3.279,0 5.87,1.071 7.771,3.212 1.901,2.142 2.853,5.106 2.853,8.895 0,3.579 -0.97,6.477 -2.909,8.692 -1.938,2.216 -4.592,3.324 -7.961,3.324 z m 0.157,-22.236 c -2.71,0 -4.87,0.914 -6.48,2.74 -1.609,1.827 -2.414,4.365 -2.414,7.614 0,3.01 0.786,5.428 2.358,7.255 1.572,1.827 3.721,2.74 6.446,2.74 2.771,0 4.904,-0.898 6.401,-2.695 1.497,-1.797 2.246,-4.29 2.246,-7.479 0,-3.279 -0.745,-5.795 -2.235,-7.547 -1.489,-1.752 -3.596,-2.628 -6.322,-2.628 z m 35.087,21.675 h -1.932 l -5.009,-17.34 c -0.135,-0.479 -0.255,-1.123 -0.359,-1.932 h -0.112 c -0.03,0.345 -0.18,0.974 -0.449,1.887 l -5.615,17.385 h -1.932 l -6.94,-23 h 2.291 l 5.346,18.351 c 0.135,0.479 0.239,1.123 0.314,1.932 h 0.18 c 0.03,-0.434 0.172,-1.078 0.427,-1.932 l 5.84,-18.351 h 1.415 l 5.211,18.351 c 0.12,0.435 0.225,1.078 0.314,1.932 h 0.18 c 0,-0.434 0.127,-1.078 0.382,-1.932 l 5.458,-18.351 h 2.134 z m 9.616,-1.011 v -2.493 c 0.778,0.674 1.722,1.206 2.83,1.595 1.108,0.39 2.066,0.584 2.875,0.584 3.608,0 5.413,-1.475 5.413,-4.425 0,-1.018 -0.396,-1.887 -1.19,-2.605 -0.794,-0.718 -2.081,-1.46 -3.863,-2.224 -2.201,-0.958 -3.747,-1.95 -4.638,-2.976 -0.892,-1.025 -1.337,-2.272 -1.337,-3.74 0,-1.872 0.715,-3.384 2.146,-4.537 1.43,-1.153 3.192,-1.729 5.289,-1.729 1.977,0 3.669,0.404 5.076,1.213 v 2.336 c -1.707,-1.108 -3.474,-1.662 -5.301,-1.662 -1.513,0 -2.732,0.393 -3.661,1.179 -0.929,0.786 -1.393,1.808 -1.393,3.066 0,1.093 0.292,1.98 0.876,2.662 0.584,0.682 1.872,1.464 3.863,2.347 2.396,1.078 4.043,2.078 4.941,2.999 0.898,0.921 1.348,2.145 1.348,3.672 0,1.827 -0.686,3.335 -2.055,4.526 -1.371,1.19 -3.261,1.786 -5.672,1.786 -2.215,-0.002 -4.064,-0.526 -5.547,-1.574 z m 80.185,1.011 v -32.209 h 2.224 v 30.188 h 12.915 v 2.021 z m 20.802,-28.795 c -0.449,0 -0.846,-0.165 -1.19,-0.494 -0.345,-0.329 -0.517,-0.749 -0.517,-1.258 0,-0.494 0.176,-0.895 0.528,-1.202 0.352,-0.307 0.744,-0.46 1.179,-0.46 0.464,0 0.872,0.15 1.224,0.449 0.353,0.3 0.528,0.704 0.528,1.213 0,0.479 -0.172,0.891 -0.517,1.235 -0.345,0.345 -0.756,0.517 -1.235,0.517 z m -1.011,28.795 v -23 h 2.066 v 23 z m 24.238,0 v -13.387 c 0,-5.525 -1.991,-8.288 -5.975,-8.288 -2.216,0 -4.035,0.813 -5.458,2.437 -1.423,1.625 -2.134,3.635 -2.134,6.031 v 13.207 h -2.066 v -23 h 2.066 v 4.178 h 0.09 c 1.677,-3.159 4.298,-4.739 7.861,-4.739 2.485,0 4.388,0.828 5.705,2.482 1.317,1.655 1.977,4.017 1.977,7.086 v 13.993 z m 23.34,0 v -4.178 h -0.09 c -1.603,3.16 -4.073,4.739 -7.412,4.739 -5.436,0 -8.153,-3.421 -8.153,-10.265 v -13.296 h 2.089 v 12.78 c 0,3.115 0.513,5.376 1.539,6.783 1.025,1.408 2.639,2.111 4.84,2.111 2.142,0 3.875,-0.786 5.199,-2.358 1.326,-1.572 1.988,-3.668 1.988,-6.289 v -13.027 h 2.066 v 23 z m 15.727,-11.276 7.502,11.275 h -2.628 l -6.064,-9.703 h -0.09 l -0.809,1.28 c -0.104,0.18 -0.232,0.382 -0.382,0.606 l -5.076,7.816 h -2.516 l 7.682,-11.23 -7.547,-11.77 h 2.426 l 5.121,8.243 c 0.659,1.063 1.056,1.722 1.19,1.977 h 0.09 l 1.146,-1.887 5.346,-8.333 h 2.426 z m 85.656,11.837 c -4.552,0 -8.18,-1.512 -10.883,-4.537 -2.702,-3.024 -4.054,-6.955 -4.054,-11.792 0,-5.136 1.389,-9.25 4.167,-12.342 2.777,-3.092 6.569,-4.638 11.376,-4.638 4.343,0 7.857,1.486 10.546,4.458 2.688,2.973 4.031,6.87 4.031,11.691 0,5.331 -1.378,9.523 -4.133,12.578 -2.755,3.055 -6.438,4.582 -11.05,4.582 z m 0.224,-31.288 c -3.743,0 -6.824,1.355 -9.242,4.065 -2.419,2.71 -3.628,6.259 -3.628,10.646 0,4.433 1.146,7.962 3.437,10.59 2.291,2.628 5.346,3.942 9.164,3.942 3.983,0 7.135,-1.299 9.456,-3.897 2.321,-2.598 3.481,-6.218 3.481,-10.86 0,-4.552 -1.135,-8.104 -3.402,-10.658 -2.27,-2.551 -5.357,-3.828 -9.266,-3.828 z m 19.702,29.581 v -2.538 c 2.306,1.468 4.642,2.201 7.008,2.201 2.516,0 4.425,-0.52 5.728,-1.561 1.303,-1.041 1.954,-2.497 1.954,-4.369 0,-1.647 -0.438,-2.961 -1.313,-3.942 -0.877,-0.98 -2.774,-2.317 -5.694,-4.009 -3.265,-1.901 -5.331,-3.493 -6.199,-4.773 -0.868,-1.28 -1.303,-2.759 -1.303,-4.436 0,-2.276 0.884,-4.208 2.65,-5.795 1.767,-1.587 4.125,-2.381 7.075,-2.381 1.917,0 3.833,0.322 5.75,0.966 v 2.336 c -1.887,-0.854 -3.9,-1.28 -6.042,-1.28 -2.187,0 -3.919,0.554 -5.2,1.662 -1.279,1.108 -1.92,2.516 -1.92,4.223 0,1.647 0.438,2.958 1.314,3.931 0.875,0.974 2.766,2.299 5.671,3.976 3.01,1.707 5.013,3.223 6.009,4.548 0.995,1.325 1.493,2.849 1.493,4.571 0,2.471 -0.857,4.485 -2.571,6.042 -1.715,1.558 -4.137,2.336 -7.267,2.336 -1.108,0 -2.385,-0.172 -3.829,-0.517 -1.446,-0.345 -2.551,-0.742 -3.314,-1.191 z m 40.5,1.146 -7.412,-12.286 c -0.464,-0.764 -0.861,-1.512 -1.19,-2.246 h -0.112 c -0.404,0.824 -0.831,1.572 -1.28,2.246 l -7.547,12.286 h -2.673 l 10.175,-16.239 -9.568,-15.97 h 2.673 l 7.21,12.106 c 0.374,0.629 0.764,1.348 1.168,2.156 h 0.09 l 1.19,-2.156 7.165,-12.106 h 2.583 l -9.658,15.925 9.883,16.284 z"
     id="path44"
     style="fill:#008000"
     inkscape:connector-curvature="0" />
  <text
     xml:space="preserve"
     style="font-style:normal;font-weight:normal;font-size:53.59467316px;line-height:1.25;font-family:sans-serif;letter-spacing:0px;word-spacing:0px;fill:#ffffff;fill-opacity:1;stroke:none;stroke-width:1.33986676"
     x="318.92932"
     y="92.881416"
     id="text56"
     transform="scale(0.90695815,1.1025867)"><tspan
       sodipodi:role="line"
       id="tspan54"
       x="318.92932"
       y="92.881416"
       style="stroke-width:1.33986676"><tspan
         style="font-size:48px"
         id="tspan260">Manage all Clubs</tspan></tspan></text>
  <g
     id="g438"
     transform="matrix(0.11001769,0,0,0.10852008,722.76072,50.85779)"
     style="fill:#ffffff">
    <path
       id="path432"
       d="m 689.5,991.7 c -3.8,-16.5 -6.6,-33.3 -11.6,-49.4 -4.7,-15.1 -17,-19.7 -31,-12.2 -18.7,10.1 -36.8,21.4 -55.2,32.2 -1.6,1 -3.3,1.9 -5.3,3.1 -25.1,-32.4 -49.9,-64.5 -75.2,-97.2 4.1,-3.5 8.3,-6.7 12,-10.3 8.8,-8.4 18,-16.4 25.8,-25.7 7.7,-9.2 5.7,-19 -5.3,-24.3 -12.2,-5.8 -25.3,-9.8 -38,-14.3 -5.3,-1.9 -10.8,-3.1 -16.2,-4.4 -2.4,-0.6 -3.3,-1.7 -3.3,-4.3 0.1,-30 0.1,-59.9 0,-89.9 0,-2.7 0.9,-3.9 3.6,-4.6 14.8,-3.6 29.5,-7.5 44.2,-11.2 0.5,-0.1 0.9,-0.2 1.4,-0.3 15.1,-4.5 19,-14.5 9.6,-27.2 -9,-12.2 -19.2,-23.6 -28.8,-35.4 -1.1,-1.4 -2.3,-2.7 -3.5,-4.1 23.9,-32.5 47.7,-64.9 71.8,-97.7 1.4,1 2.8,1.9 4.2,2.9 14.9,10.9 29.6,21.9 44.6,32.5 3.3,2.4 7.3,4.1 11.3,5.1 12.3,3.1 22,-1.5 28,-15.1 6.2,-13.8 10.7,-28.4 15.7,-42.7 3.1,-9 2.8,-9.2 12,-9.1 22.6,0.2 45.2,1.1 67.7,0.5 12.8,-0.3 19.7,6.3 24.3,16.4 5.2,11.5 9.5,23.4 14.5,35 1.7,3.9 3.9,7.7 6.5,11.2 4.8,6.7 10.7,8.8 18,5.3 8.3,-4 16.2,-9.1 23.7,-14.4 12.4,-8.7 24.4,-18.1 37,-27.4 24.9,33.4 49.5,66.5 74.2,99.5 -9.1,7.4 -18.2,14.2 -26.6,21.7 -5.3,4.8 -10,10.4 -14.2,16.2 -7.1,9.7 -5,18.5 6.3,22.7 13,4.9 26.5,8.2 39.9,12.1 4.9,1.4 10,2.3 14.8,3.9 1.4,0.5 3.3,2.6 3.3,4 0.2,30.1 0.1,60.2 0.2,90.4 0,3.1 -1.8,3.7 -4,4.3 -13.4,3.8 -26.8,7.4 -40.1,11.7 -5.5,1.8 -10.9,4.6 -15.8,7.9 -9,6 -10.8,15.3 -4.8,24.2 3.3,4.8 7.3,9.3 11.7,13.3 8,7.3 16.5,14.1 25.2,21.4 -32.8,31.6 -65.4,63 -98.2,94.5 -8.7,-7.7 -17,-15.4 -25.8,-22.6 -4.8,-3.9 -10,-7.5 -15.5,-10.2 -10.1,-4.9 -21.2,-1.3 -25.3,9.1 -3.7,9.6 -5.6,19.9 -7.6,30 -1.5,7.5 -2.1,15.2 -3.1,22.8 -32.3,0.1 -64.7,0.1 -97.1,0.1 z m 48.1,-125.6 c 69.3,0 124.8,-53.5 126,-124.9 1.3,-70.6 -54.2,-128.1 -125.1,-129.3 -69.6,-1.2 -126.9,54.9 -127.8,126.2 -0.8,70.1 54.7,127.7 126.9,128 z"
       inkscape:connector-curvature="0"
       style="fill:#ffffff" />
    <path
       id="path434"
       d="m 195,246.9 c 0.3,-44.2 14.2,-88.4 41.1,-128.3 C 262.3,79.8 296.7,50.2 338.9,29.8 362,18.6 386.6,12.4 412,9.3 c 28,-3.4 54.7,2.6 80,13.8 73.1,32.5 120.8,88.3 144.5,164.1 20.2,64.8 8.7,125.7 -29.2,181.6 -24.4,35.9 -55.9,64.6 -93.6,86.1 C 465,482.6 413.6,488.5 360.5,470.5 295.9,448.6 246,408.9 215.9,346.5 202.4,318.5 195.5,286.7 195,246.9 Z"
       inkscape:connector-curvature="0"
       style="fill:#ffffff" />
    <path
       id="path436"
       d="m 350.4,533.3 c 41.7,0 83.3,-0.1 125,0.1 5.4,0 10.9,0.7 16.2,1.7 11.8,2.2 16.4,9 12.6,20.5 -3.3,10 -7.3,19.9 -12.6,28.9 -15,25.8 -29.3,51.8 -39,80.1 -15.7,45.7 -21.5,92.5 -15.1,140.5 2.5,18.5 6.8,36.8 10,55.2 0.9,5.3 1.5,10.8 1.2,16.2 -0.5,8.8 -6,14.3 -14.3,15.8 -8.9,1.7 -18.1,2.6 -27.1,3 -41.4,1.7 -82.6,-1.4 -123.7,-5.2 -35.9,-3.3 -71.8,-5.9 -107.7,-9.1 -32.8,-3 -65.8,-5.6 -98.4,-10 C 61.8,868.9 46.2,864.2 31.2,858.9 12.8,852.4 7,841.4 11.7,822.4 c 5.4,-21.5 11.8,-42.9 18.7,-64 13.1,-40.1 25.5,-80.6 40.6,-119.9 21.2,-55.1 61.7,-89.1 119.9,-100.1 17.8,-3.4 36.2,-4.3 54.4,-4.9 35.1,-1.1 70.2,-1.3 105.2,-1.8 -0.1,0.5 -0.1,1 -0.1,1.6 z"
       inkscape:connector-curvature="0"
       style="fill:#ffffff" />
  </g>
</svg>
